<?xml version="1.0" encoding="iso-8859-1"?>
<!-- Generator: Adobe Illustrator 19.0.0, SVG Export Plug-In . SVG Version: 6.00 Build 0)  -->
<svg version="1.1" id="Capa_1" xmlns="http://www.w3.org/2000/svg" xmlns:xlink="http://www.w3.org/1999/xlink" x="0px" y="0px"
	 viewBox="0 0 405.333 405.333" style="enable-background:new 0 0 405.333 405.333;" xml:space="preserve">
<g>
	<g>
		<g>
			<rect x="0" y="192" width="170.667" height="42.667" fill="#424242"/>
			<path d="M278.293,304.853l61.12-65.387c8-8.427,15.36-16.747,22.187-25.067c6.72-8.32,12.587-16.64,17.493-24.853
				c4.907-8.32,8.747-16.533,11.413-24.853c2.773-8.32,4.16-16.747,4.16-25.28c0-11.413-1.92-21.76-5.76-31.147
				c-3.84-9.28-9.387-17.28-16.747-23.787s-16.32-11.52-26.987-15.147C334.507,65.813,322.347,64,308.693,64
				c-14.72,0-27.947,2.24-39.467,6.827S248,81.6,240.107,89.493c-7.893,7.893-13.867,17.173-17.92,27.733
				c-3.84,10.027-5.76,20.8-5.973,32.107h45.653c0.107-6.613,0.96-12.907,2.773-18.56c1.92-6.187,4.8-11.52,8.64-16
				c3.84-4.48,8.64-7.893,14.4-10.453c5.867-2.453,12.693-3.733,20.587-3.733c6.507,0,12.267,1.067,17.28,3.307
				s9.28,5.227,12.693,9.067c3.413,3.84,6.08,8.533,7.893,13.76c1.813,5.333,2.667,11.093,2.667,17.387
				c0,4.587-0.64,9.28-1.813,13.867c-1.173,4.587-3.2,9.6-6.187,14.933c-2.987,5.333-6.933,11.2-11.84,17.707
				c-4.907,6.4-11.2,13.76-18.667,22.08l-89.067,97.173v31.467h184.107v-36.48H278.293z" fill="#424242"/>
		</g>
	</g>
</g>
</svg>
